<?xml version="1.0" encoding="utf-8"?>
<!-- Generator: Adobe Illustrator 27.8.0, SVG Export Plug-In . SVG Version: 6.00 Build 0)  -->
<svg version="1.1" id="Capa_1" xmlns="http://www.w3.org/2000/svg" xmlns:xlink="http://www.w3.org/1999/xlink" x="0px" y="0px"
	 viewBox="0 0 144 144" style="enable-background:new 0 0 144 144;" xml:space="preserve">
<style type="text/css">
	.st0{fill:#FFC800;}
	.st1{fill:#FFB500;}
	.st2{fill:#FFFFFF;}
	.st3{fill:url(#SVGID_1_);}
	.st4{fill:#FFFF00;}
	.st5{fill:#FFE600;}
</style>
<rect class="st0" width="144" height="144"/>
<g>
	<g>
		<g>
			<polygon class="st0" points="77.1,103.97 58.92,81.18 65.41,52.75 91.68,40.1 117.95,52.75 124.44,81.18 106.26,103.97 			"/>
			<polygon class="st1" points="91.68,103.97 91.68,40.1 117.95,52.75 124.44,81.18 106.26,103.97 			"/>
			<path class="st2" d="M107.23,106.07h-31.1L56.73,81.75l6.92-30.32l28.02-13.5l28.02,13.5l6.92,30.32L107.23,106.07z
				 M77.11,103.97h29.12l18.16-22.77l-6.48-28.39L91.68,40.18L65.44,52.81l-6.48,28.39L77.11,103.97z"/>
		</g>
		<linearGradient id="SVGID_1_" gradientUnits="userSpaceOnUse" x1="86.6997" y1="73.5095" x2="111.0043" y2="77.0227">
			<stop  offset="0" style="stop-color:#000000;stop-opacity:0.2"/>
			<stop  offset="1" style="stop-color:#000000;stop-opacity:0"/>
		</linearGradient>
		<polygon class="st3" points="110.44,62.67 91.68,52.64 82.87,91.36 110.44,98.53 		"/>
		<g>
			<polygon class="st4" points="84.16,89.76 84.16,80.61 73.82,80.61 85.89,67.84 91.68,55.63 97.37,67.71 109.53,80.61 
				99.19,80.61 99.19,89.76 			"/>
			<polygon class="st5" points="91.68,89.76 91.68,55.63 97.37,67.71 109.53,80.61 99.19,80.61 99.19,89.76 			"/>
			<path class="st2" d="M100.48,91.36H82.87v-9.43H70.82l14.06-14.88l6.79-14.41l6.79,14.41l14.06,14.88h-12.05V91.36z M84.16,89.76
				h15.03v-9.15h10.34l-12.16-12.9l-5.7-12.09l-5.79,12.22L73.82,80.61h10.34V89.76z"/>
		</g>
	</g>
	<g>
		<path d="M22.14,64.7v-8.42c0-0.06-0.05-0.12-0.12-0.12h-0.97c-0.06,0-0.12,0.05-0.12,0.12v6.58l-1.63-6.61
			c-0.01-0.05-0.06-0.09-0.11-0.09H17.5c-0.06,0-0.12,0.05-0.12,0.12v8.42c0,0.06,0.05,0.12,0.12,0.12h0.97
			c0.06,0,0.12-0.05,0.12-0.12v-6.57l1.61,6.6c0.01,0.05,0.06,0.09,0.11,0.09h1.72C22.09,64.81,22.14,64.76,22.14,64.7z"/>
		<path d="M28.88,64.67l-2-8.42c-0.01-0.05-0.06-0.09-0.11-0.09h-1.38c-0.05,0-0.1,0.04-0.11,0.09l-2.03,8.42
			c-0.01,0.03,0,0.07,0.02,0.1c0.02,0.03,0.06,0.04,0.09,0.04h1.07c0.05,0,0.1-0.04,0.11-0.09l0.45-2.04h2.16l0.44,2.04
			c0.01,0.05,0.06,0.09,0.11,0.09h1.07c0.04,0,0.07-0.02,0.09-0.04C28.88,64.74,28.89,64.7,28.88,64.67z M26.9,61.55h-1.68
			l0.83-3.93L26.9,61.55z"/>
		<path d="M33.85,56.16h-1.03c-0.06,0-0.1,0.04-0.11,0.09l-1.31,6.76l-1.21-6.76c-0.01-0.05-0.06-0.09-0.11-0.09h-1.06
			c-0.03,0-0.07,0.02-0.09,0.04c-0.02,0.03-0.03,0.06-0.02,0.1l1.65,8.42c0.01,0.05,0.06,0.09,0.11,0.09h1.43
			c0.05,0,0.1-0.04,0.11-0.09l1.77-8.42c0.01-0.03,0-0.07-0.02-0.1C33.92,56.18,33.89,56.16,33.85,56.16z"/>
		<path d="M39.24,56.16H35.3c-0.06,0-0.12,0.05-0.12,0.12v8.42c0,0.06,0.05,0.12,0.12,0.12h3.95c0.06,0,0.12-0.05,0.12-0.12v-0.88
			c0-0.06-0.05-0.12-0.12-0.12h-2.78v-2.8h2.48c0.06,0,0.12-0.05,0.12-0.12v-0.88c0-0.06-0.05-0.12-0.12-0.12h-2.48v-2.52h2.78
			c0.06,0,0.12-0.05,0.12-0.12v-0.88C39.36,56.21,39.31,56.16,39.24,56.16z"/>
		<path d="M19.71,67.67H17.5c-0.06,0-0.12,0.05-0.12,0.12v8.42c0,0.06,0.05,0.12,0.12,0.12h2.36c0.76,0,1.31-0.16,1.65-0.46
			c0.34-0.31,0.51-0.83,0.51-1.55v-4.64c0-0.7-0.2-1.21-0.6-1.53C21.03,67.83,20.45,67.67,19.71,67.67z M19.96,75.19h-1.3v-6.39
			h1.32c0.24,0,0.42,0.07,0.56,0.2c0.14,0.14,0.21,0.31,0.21,0.55v4.87c0,0.27-0.06,0.47-0.18,0.58
			C20.43,75.13,20.23,75.19,19.96,75.19z"/>
		<path d="M27.77,67.67h-3.95c-0.06,0-0.12,0.05-0.12,0.12v8.42c0,0.06,0.05,0.12,0.12,0.12h3.95c0.06,0,0.12-0.05,0.12-0.12v-0.88
			c0-0.06-0.05-0.12-0.12-0.12h-2.78v-2.8h2.48c0.06,0,0.12-0.05,0.12-0.12v-0.88c0-0.06-0.05-0.12-0.12-0.12h-2.48v-2.52h2.78
			c0.06,0,0.12-0.05,0.12-0.12v-0.88C27.88,67.73,27.83,67.67,27.77,67.67z"/>
		<path d="M19.65,79.19H17.5c-0.06,0-0.12,0.05-0.12,0.12v8.42c0,0.06,0.05,0.12,0.12,0.12h1.05c0.06,0,0.12-0.05,0.12-0.12v-3.16
			h1.02c1.43,0,2.16-0.68,2.16-2.02v-1.37C21.83,79.86,21.1,79.19,19.65,79.19z M19.79,83.43h-1.14v-3.11h1.14
			c0.27,0,0.47,0.06,0.59,0.17c0.12,0.11,0.18,0.31,0.18,0.58v1.6c0,0.27-0.06,0.47-0.18,0.59C20.26,83.38,20.06,83.43,19.79,83.43z
			"/>
		<path d="M25.61,79.19h-1.38c-0.05,0-0.1,0.04-0.11,0.09l-2.03,8.42c-0.01,0.03,0,0.07,0.02,0.1c0.02,0.03,0.06,0.04,0.09,0.04
			h1.07c0.05,0,0.1-0.04,0.11-0.09l0.45-2.04h2.16l0.44,2.04c0.01,0.05,0.06,0.09,0.11,0.09h1.07c0.04,0,0.07-0.02,0.09-0.04
			c0.02-0.03,0.03-0.06,0.02-0.1l-2-8.42C25.71,79.23,25.67,79.19,25.61,79.19z M25.75,84.58h-1.68l0.83-3.93L25.75,84.58z"/>
		<path d="M31.09,79.19h-2.15c-0.06,0-0.12,0.05-0.12,0.12v8.42c0,0.06,0.05,0.12,0.12,0.12h1.05c0.06,0,0.12-0.05,0.12-0.12v-3.16
			h1.02c1.43,0,2.16-0.68,2.16-2.02v-1.37C33.27,79.86,32.54,79.19,31.09,79.19z M31.23,83.43H30.1v-3.11h1.14
			c0.27,0,0.47,0.06,0.59,0.17c0.12,0.11,0.18,0.31,0.18,0.58v1.6c0,0.27-0.06,0.47-0.18,0.59C31.7,83.38,31.5,83.43,31.23,83.43z"
			/>
		<path d="M38.79,79.19h-3.95c-0.06,0-0.12,0.05-0.12,0.12v8.42c0,0.06,0.05,0.12,0.12,0.12h3.95c0.06,0,0.12-0.05,0.12-0.12v-0.88
			c0-0.06-0.05-0.12-0.12-0.12H36v-2.8h2.48c0.06,0,0.12-0.05,0.12-0.12v-0.88c0-0.06-0.05-0.12-0.12-0.12H36V80.3h2.78
			c0.06,0,0.12-0.05,0.12-0.12V79.3C38.9,79.24,38.85,79.19,38.79,79.19z"/>
		<path d="M44.26,86.69h-2.57V79.3c0-0.06-0.05-0.12-0.12-0.12h-1.05c-0.06,0-0.12,0.05-0.12,0.12v8.42c0,0.06,0.05,0.12,0.12,0.12
			h3.73c0.06,0,0.12-0.05,0.12-0.12v-0.91C44.37,86.75,44.32,86.69,44.26,86.69z"/>
	</g>
</g>
</svg>
