<?xml version="1.0" encoding="utf-8"?>
<!-- Generator: Adobe Illustrator 15.0.0, SVG Export Plug-In . SVG Version: 6.00 Build 0)  -->
<!DOCTYPE svg PUBLIC "-//W3C//DTD SVG 1.1//EN" "http://www.w3.org/Graphics/SVG/1.1/DTD/svg11.dtd">
<svg version="1.1" id="Capa_1" xmlns="http://www.w3.org/2000/svg" xmlns:xlink="http://www.w3.org/1999/xlink" x="0px" y="0px"
	 width="48px" height="48px" viewBox="0 0 48 48" enable-background="new 0 0 48 48" xml:space="preserve">
<path fill="#FFC800" d="M43.2,0H14.4C11.76,0,9.6,2.161,9.6,4.8v28.8c0,2.639,2.16,4.801,4.801,4.801H43.2
	c2.639,0,4.801-2.162,4.801-4.801V4.8C48,2.161,45.838,0,43.2,0z M22.8,18c0,1.992-1.607,3.6-3.6,3.6h-2.4v4.801h-3.6V12h6
	c1.992,0,3.6,1.607,3.6,3.6V18z M34.799,22.8c0,1.992-1.607,3.601-3.6,3.601h-6V12h6c1.992,0,3.6,1.607,3.6,3.6V22.8z M44.401,15.6
	h-3.602V18h3.602v3.6h-3.602v4.801h-3.6V12h7.201V15.6z M16.8,18h2.4v-2.4h-2.4V18z M4.8,9.6H0v33.6C0,45.838,2.16,48,4.8,48h33.601
	V43.2H4.8V9.6z M28.799,22.8h2.4v-7.2h-2.4V22.8z"/>
</svg>
